<?xml version="1.0" encoding="UTF-8"?>
<svg version="1.1" xmlns="http://www.w3.org/2000/svg" width="150" height="150">
<path d="M0 0 C2.48652919 1.93227994 4.84557775 3.94206279 7.18359375 6.05078125 C7.86808594 6.64246094 8.55257812 7.23414062 9.2578125 7.84375 C21.50113317 19.12492366 30.05577429 36.16256128 31.4050293 52.77758789 C32.3234284 75.8354759 28.0351591 95.47555055 12.18359375 113.05078125 C11.29607422 114.07751953 11.29607422 114.07751953 10.390625 115.125 C-0.89054866 127.36832067 -17.92818628 135.92296179 -34.54321289 137.2722168 C-57.6011009 138.1906159 -77.24117555 133.9023466 -94.81640625 118.05078125 C-95.50089844 117.45910156 -96.18539062 116.86742187 -96.890625 116.2578125 C-109.13394567 104.97663884 -117.68858679 87.93900122 -119.0378418 71.32397461 C-119.9562409 48.2660866 -115.6679716 28.62601195 -99.81640625 11.05078125 C-99.22472656 10.36628906 -98.63304688 9.68179687 -98.0234375 8.9765625 C-73.11940191 -18.05148465 -29.52218663 -20.43213749 0 0 Z " fill="#E2DFDA" transform="translate(118.81640625,12.94921875)"/>
<path d="M0 0 C1.65612305 0.01353516 1.65612305 0.01353516 3.34570312 0.02734375 C6.0432017 0.05069872 8.74023077 0.08344946 11.4375 0.125 C11.4375 1.115 11.4375 2.105 11.4375 3.125 C10.4475 3.785 9.4575 4.445 8.4375 5.125 C8.9325 6.61 8.9325 6.61 9.4375 8.125 C10.4275 7.795 11.4175 7.465 12.4375 7.125 C12.6540625 8.0221875 12.6540625 8.0221875 12.875 8.9375 C13.3247439 10.68650404 13.86642341 12.41177023 14.4375 14.125 C11.4655615 13.00048273 9.10309313 11.90206209 6.4375 10.125 C6.4375 10.785 6.4375 11.445 6.4375 12.125 C4.4375 11.125 2.4375 10.125 0.4375 9.125 C0.9325 11.6 0.9325 11.6 1.4375 14.125 C-0.4375 13.8125 -0.4375 13.8125 -2.5625 13.125 C-4.5625 10.125 -4.5625 10.125 -4.5625 7.125 C-7.5835714 9.1390476 -9.16917426 10.75779613 -10.5625 14.125 C-11.0575 12.64 -11.0575 12.64 -11.5625 11.125 C-14.43670123 13.84104715 -14.43670123 13.84104715 -16.5625 17.125 C-17.8825 17.125 -19.2025 17.125 -20.5625 17.125 C-26.5870793 23.1495793 -28.72983329 28.45956987 -28.8125 36.9375 C-28.68916294 42.70350773 -28.30051103 48.4054145 -27.5625 54.125 C-28.8825 54.125 -30.2025 54.125 -31.5625 54.125 C-31.3459375 55.16140625 -31.129375 56.1978125 -30.90625 57.265625 C-30.62479463 58.63537448 -30.343556 60.00516851 -30.0625 61.375 C-29.91941406 62.05691406 -29.77632812 62.73882812 -29.62890625 63.44140625 C-28.94998951 66.77133121 -28.5625 69.70832551 -28.5625 73.125 C-27.9025 73.125 -27.2425 73.125 -26.5625 73.125 C-26.0675 78.075 -26.0675 78.075 -25.5625 83.125 C-24.9025 83.125 -24.2425 83.125 -23.5625 83.125 C-20.32683141 87.19337742 -20.12756823 91.05689378 -20.0625 96.0625 C-19.97645338 102.64506636 -18.98919681 107.40415812 -14.5 112.4375 C-10.89046426 115.73984121 -7.24371232 118.99879235 -3.57421875 122.234375 C-2.91035156 122.85828125 -2.24648437 123.4821875 -1.5625 124.125 C-1.5625 124.455 -1.5625 124.785 -1.5625 125.125 C-5.0275 125.62 -5.0275 125.62 -8.5625 126.125 C-8.85812367 131.44670494 -8.85812367 131.44670494 -6.5625 136.125 C-6.3671875 139.48046875 -6.3671875 139.48046875 -6.4375 143.3125 C-6.45554687 144.58480469 -6.47359375 145.85710937 -6.4921875 147.16796875 C-6.51539062 148.14378906 -6.53859375 149.11960938 -6.5625 150.125 C-26.58385781 149.66713111 -42.8979458 140.08028939 -56.5625 126.125 C-71.70543816 109.97253262 -76.5827836 90.47812428 -75.94140625 68.8828125 C-75.05876473 51.91063974 -67.87834343 36.67130408 -56.5625 24.125 C-55.97082031 23.44050781 -55.37914063 22.75601562 -54.76953125 22.05078125 C-40.52256795 6.58872513 -20.59174808 -0.32271576 0 0 Z " fill="#E2DFDA" transform="translate(75.5625,-0.12499999999999999)"/>
<path d="M0 0 C0.66 0 1.32 0 2 0 C2.99 1.98 3.98 3.96 5 6 C5.66 6 6.32 6 7 6 C7 4.68 7 3.36 7 2 C10 3.5 10 3.5 13 5 C13 4.34 13 3.68 13 3 C13.55816406 3.28230469 14.11632812 3.56460937 14.69140625 3.85546875 C16.25154652 4.62893931 17.82239984 5.38111212 19.40234375 6.11328125 C26.50710119 9.4740833 31.86191887 13.14643217 35.27734375 20.43359375 C37.6893535 28.99948785 36.36824008 38.56314473 34 47 C34.99 47 35.98 47 37 47 C37.33693273 53.96327638 36.3030887 59.43345544 34 66 C33.34 66 32.68 66 32 66 C31.96132812 66.99580078 31.96132812 66.99580078 31.921875 68.01171875 C31.83679688 69.33623047 31.83679688 69.33623047 31.75 70.6875 C31.70359375 71.55761719 31.6571875 72.42773438 31.609375 73.32421875 C31 76 31 76 28.97265625 78.28515625 C26.19692426 82.10522305 26.61651056 85.16171603 26.6875 89.75 C26.53067792 96.45648968 26.05773561 100.97669886 21.25390625 106.03125 C16.92495619 109.8125166 12.56655983 113.50695333 8 117 C10.97 117.495 10.97 117.495 14 118 C14.05422947 119.4370809 14.09289723 120.87475462 14.125 122.3125 C14.14820313 123.11300781 14.17140625 123.91351563 14.1953125 124.73828125 C14 127 14 127 12 130 C11.75753217 133.20379124 11.75753217 133.20379124 11.875 136.6875 C11.89304688 137.86699219 11.91109375 139.04648438 11.9296875 140.26171875 C11.95289063 141.16535156 11.97609375 142.06898438 12 143 C8.04 143 4.08 143 0 143 C-0.04898438 142.02417969 -0.09796875 141.04835937 -0.1484375 140.04296875 C-0.22320312 138.77066406 -0.29796875 137.49835938 -0.375 136.1875 C-0.44460937 134.92292969 -0.51421875 133.65835938 -0.5859375 132.35546875 C-0.76102939 128.87244766 -0.76102939 128.87244766 -3 126 C-3.07905064 123.66800612 -3.08798769 121.33167378 -3 119 C0.465 118.01 0.465 118.01 4 117 C3.19175781 116.35933594 2.38351563 115.71867187 1.55078125 115.05859375 C-11.47426715 104.57719854 -11.47426715 104.57719854 -14 97 C-14.22725627 93.65969356 -14.39266285 90.32576071 -14.51757812 86.98046875 C-14.71758 82.92760049 -15.22574698 79.66343741 -17 76 C-17.66 76 -18.32 76 -19 76 C-19.33 72.7 -19.66 69.4 -20 66 C-20.66 66 -21.32 66 -22 66 C-22.50643553 63.77228658 -23.0048962 61.54275924 -23.5 59.3125 C-23.91765625 57.45044922 -23.91765625 57.45044922 -24.34375 55.55078125 C-24.89354126 52.57601782 -25.13795705 50.00631398 -25 47 C-23.68 47 -22.36 47 -21 47 C-21.144375 46.44054688 -21.28875 45.88109375 -21.4375 45.3046875 C-23.82759786 34.98079259 -24.96206737 24.54595241 -19.51171875 15.06640625 C-17.32891739 12.08268036 -15.02714852 10.11196408 -12 8 C-12 8.66 -12 9.32 -12 10 C-11.34 10 -10.68 10 -10 10 C-9.731875 9.195625 -9.46375 8.39125 -9.1875 7.5625 C-8.795625 6.716875 -8.40375 5.87125 -8 5 C-7.01 4.67 -6.02 4.34 -5 4 C-4.67 4.66 -4.34 5.32 -4 6 C-3.525625 5.195625 -3.05125 4.39125 -2.5625 3.5625 C-1 1 -1 1 0 0 Z " fill="#E6A976" transform="translate(69,7)"/>
<path d="M0 0 C4.60428934 1.31551124 8.18320388 3.09196486 12 6 C12 6.66 12 7.32 12 8 C12.60585937 8.10957031 13.21171875 8.21914062 13.8359375 8.33203125 C24.00485588 10.2563035 32.86452619 13.08239389 42 18 C35.32469858 32.30421733 20.4503841 42.2290178 6.1875 47.9375 C-0.83855141 50.41627726 -7.489459 52.38515595 -15 52 C-16.10852275 47.56590901 -16.21993456 43.54531422 -16 39 C-15.34 38.01 -14.68 37.02 -14 36 C-13.54605448 33.72087062 -13.54605448 33.72087062 -13.375 31.3125 C-13.30023438 30.50425781 -13.22546875 29.69601563 -13.1484375 28.86328125 C-13.09945312 28.24839844 -13.05046875 27.63351563 -13 27 C-15.31 27 -17.62 27 -20 27 C-17.58903293 23.54078637 -15.00460806 21.19494411 -11.625 18.75 C-5.91519972 14.42525028 -1.85140665 9.46644134 -0.125 2.4375 C-0.08375 1.633125 -0.0425 0.82875 0 0 Z " fill="#F2F7FA" transform="translate(96,98)"/>
<path d="M0 0 C-0.0314209 0.80928955 -0.0628418 1.6185791 -0.09521484 2.45239258 C-0.65534742 19.11338239 -0.25355259 33.29167148 6 49 C6 49.66 6 50.32 6 51 C-12.68255111 47.40720171 -27.55855286 37.40661746 -39.72265625 22.953125 C-41 21 -41 21 -41 18 C-37.86898679 15.7579709 -34.61370983 14.34602803 -31 13.0625 C-30.04738281 12.7221875 -29.09476563 12.381875 -28.11328125 12.03125 C-24.82824715 10.94310821 -21.51665383 10.00607731 -18.1875 9.0625 C-12.93237482 7.48720774 -9.89646253 5.79655324 -6 2 C-2.57142857 0 -2.57142857 0 0 0 Z " fill="#FAFAFB" transform="translate(54,98)"/>
<path d="M0 0 C0.66 0 1.32 0 2 0 C2.99 1.98 3.98 3.96 5 6 C5.66 6 6.32 6 7 6 C7 4.68 7 3.36 7 2 C10 3.5 10 3.5 13 5 C13 4.34 13 3.68 13 3 C13.55816406 3.28230469 14.11632812 3.56460937 14.69140625 3.85546875 C16.25154652 4.62893931 17.82239984 5.38111212 19.40234375 6.11328125 C26.50238074 9.47185037 31.87514907 13.14361264 35.2734375 20.4375 C37.84699834 29.51414467 36.41644082 39.35721817 33 48 C30.73851883 44.60777824 30.23006789 41.61279919 29.5625 37.6875 C28.67960916 32.61718401 27.66690598 28.43610651 25 24 C20.13170227 20.75446818 14.48250132 21.82754056 8.80371094 22.00170898 C6.63967099 22.06209065 4.47722607 22.08548874 2.3125 22.10742188 C0.92962612 22.14355599 -0.45319224 22.18189611 -1.8359375 22.22265625 C-3.71611572 22.26531616 -3.71611572 22.26531616 -5.63427734 22.30883789 C-9.8384812 23.17218484 -11.33023897 24.70900671 -14 28 C-15.14580868 30.54617531 -15.14580868 30.54617531 -15.6875 33.25 C-16.0278125 34.67505859 -16.0278125 34.67505859 -16.375 36.12890625 C-16.58125 37.07636719 -16.7875 38.02382813 -17 39 C-17.20625 39.89589844 -17.4125 40.79179688 -17.625 41.71484375 C-18.10071715 43.80601707 -18.55299228 45.90250226 -19 48 C-23.87935935 40.68096098 -23.92736528 31.51837589 -23 23 C-20.94766133 16.34971805 -17.66365126 11.9513846 -12 8 C-12 8.66 -12 9.32 -12 10 C-11.34 10 -10.68 10 -10 10 C-9.731875 9.195625 -9.46375 8.39125 -9.1875 7.5625 C-8.795625 6.716875 -8.40375 5.87125 -8 5 C-7.01 4.67 -6.02 4.34 -5 4 C-4.67 4.66 -4.34 5.32 -4 6 C-3.525625 5.195625 -3.05125 4.39125 -2.5625 3.5625 C-1 1 -1 1 0 0 Z " fill="#9C6F43" transform="translate(69,7)"/>
<path d="M0 0 C1.485 0.99 1.485 0.99 3 2 C3 2.66 3 3.32 3 4 C3.5775 4.0825 4.155 4.165 4.75 4.25 C7.61239404 5.20413135 8.88585379 6.88585379 11 9 C16.38689704 10.84416295 22.43241167 10.84377532 28 10 C30.57007748 8.44442679 32.38010666 6.8271773 34.4140625 4.62890625 C36 3 36 3 39 2 C39.33 1.34 39.66 0.68 40 0 C40.66340869 6.22340535 41.05814062 11.4897826 37.1875 16.6875 C32.68994238 21.74031165 27.35877236 25.90097521 22 30 C23.98 30.33 25.96 30.66 28 31 C28.05422947 32.4370809 28.09289723 33.87475462 28.125 35.3125 C28.14820312 36.11300781 28.17140625 36.91351563 28.1953125 37.73828125 C28 40 28 40 26 43 C25.75753217 46.20379124 25.75753217 46.20379124 25.875 49.6875 C25.90207031 51.45673828 25.90207031 51.45673828 25.9296875 53.26171875 C25.95289062 54.16535156 25.97609375 55.06898438 26 56 C22.04 56 18.08 56 14 56 C13.95101562 55.02417969 13.90203125 54.04835937 13.8515625 53.04296875 C13.73941406 51.13451172 13.73941406 51.13451172 13.625 49.1875 C13.55539063 47.92292969 13.48578125 46.65835938 13.4140625 45.35546875 C13.23897061 41.87244766 13.23897061 41.87244766 11 39 C10.92094936 36.66800612 10.91201231 34.33167378 11 32 C13.31 31.34 15.62 30.68 18 30 C16.78763672 29.03900391 16.78763672 29.03900391 15.55078125 28.05859375 C2.52573285 17.57719854 2.52573285 17.57719854 0 10 C-0.06802967 8.27204648 -0.08495645 6.54164635 -0.0625 4.8125 C-0.05347656 3.91144531 -0.04445312 3.01039062 -0.03515625 2.08203125 C-0.02355469 1.39496094 -0.01195312 0.70789063 0 0 Z " fill="#E6A976" transform="translate(55,94)"/>
<path d="M0 0 C2 1 4 2 6 3 C6 2.34 6 1.68 6 1 C6.55816406 1.28230469 7.11632812 1.56460937 7.69140625 1.85546875 C9.25154652 2.62893931 10.82239984 3.38111212 12.40234375 4.11328125 C19.50238074 7.47185037 24.87514907 11.14361264 28.2734375 18.4375 C30.84699834 27.51414467 29.41644082 37.35721817 26 46 C23.73851883 42.60777824 23.23006789 39.61279919 22.5625 35.6875 C21.67960916 30.61718401 20.66690598 26.43610651 18 22 C14.39501281 19.5966752 11.48872908 19.56286576 7.3125 19.375 C4.899375 19.25125 2.48625 19.1275 0 19 C0 12.73 0 6.46 0 0 Z " fill="#8C5F36" transform="translate(76,9)"/>
<path d="M0 0 C2 3 2 3 3.3125 5.875 C6.70522839 12.15783035 12.69149266 16.438922 17.98828125 21.109375 C18.65214844 21.73328125 19.31601563 22.3571875 20 23 C20 23.33 20 23.66 20 24 C17.69 24.33 15.38 24.66 13 25 C12.70437633 30.32170494 12.70437633 30.32170494 15 35 C15.1953125 38.35546875 15.1953125 38.35546875 15.125 42.1875 C15.10695313 43.45980469 15.08890625 44.73210937 15.0703125 46.04296875 C15.04710938 47.01878906 15.02390625 47.99460938 15 49 C12.03 48.67 9.06 48.34 6 48 C5.39194128 46.37645235 4.78882462 44.75105383 4.1875 43.125 C3.85105469 42.22007812 3.51460937 41.31515625 3.16796875 40.3828125 C2.78253906 39.26648438 2.39710937 38.15015625 2 37 C1.73687012 36.28811523 1.47374023 35.57623047 1.20263672 34.84277344 C-1.18888471 27.83690569 -1.38799708 21.35696954 -1.25 14 C-1.24484375 12.86949219 -1.2396875 11.73898438 -1.234375 10.57421875 C-1.1552007 2.3104014 -1.1552007 2.3104014 0 0 Z " fill="#D4ECF3" transform="translate(54,101)"/>
<path d="M0 0 C9.12436826 0.45621841 17.82312836 3.16985724 25 9 C18.69943317 17.50576522 12.03727868 25.32955063 3 31 C2.01 31 1.02 31 0 31 C-1.5703125 29.35546875 -1.5703125 29.35546875 -3.125 27.1875 C-3.64320312 26.47980469 -4.16140625 25.77210938 -4.6953125 25.04296875 C-6 23 -6 23 -7 20 C-5.35 20 -3.7 20 -2 20 C-2 20.99 -2 21.98 -2 23 C-1.67 22.34 -1.34 21.68 -1 21 C0.65 21 2.3 21 4 21 C3.71681868 18.4363053 3.42377507 15.87438474 3.125 13.3125 C3.04636719 12.59126953 2.96773437 11.87003906 2.88671875 11.12695312 C2.4103949 7.11484068 1.73699858 3.70024488 0 0 Z " fill="#F4F8FA" transform="translate(113,108)"/>
<path d="M0 0 C1.48831242 0.00667405 2.97660807 0.01863442 4.46484375 0.03515625 C5.22345703 0.03966797 5.98207031 0.04417969 6.76367188 0.04882812 C8.64326246 0.06064945 10.52281274 0.07858547 12.40234375 0.09765625 C12.45657322 1.53473715 12.49524098 2.97241087 12.52734375 4.41015625 C12.55054687 5.21066406 12.57375 6.01117188 12.59765625 6.8359375 C12.40234375 9.09765625 12.40234375 9.09765625 10.40234375 12.09765625 C10.15987592 15.30144749 10.15987592 15.30144749 10.27734375 18.78515625 C10.30441406 20.55439453 10.30441406 20.55439453 10.33203125 22.359375 C10.35523437 23.26300781 10.3784375 24.16664063 10.40234375 25.09765625 C6.44234375 25.09765625 2.48234375 25.09765625 -1.59765625 25.09765625 C-1.67113281 23.63392578 -1.67113281 23.63392578 -1.74609375 22.140625 C-1.82085937 20.86832031 -1.895625 19.59601563 -1.97265625 18.28515625 C-2.04226562 17.02058594 -2.111875 15.75601563 -2.18359375 14.453125 C-2.35868564 10.97010391 -2.35868564 10.97010391 -4.59765625 8.09765625 C-4.78515625 4.47265625 -4.78515625 4.47265625 -4.59765625 1.09765625 C-3.59765625 0.09765625 -3.59765625 0.09765625 0 0 Z " fill="#02B6AA" transform="translate(70.59765625,124.90234375)"/>
<path d="M0 0 C5.34844008 0.53484401 9.35796103 2.46690767 14 5 C14 5.66 14 6.32 14 7 C13.34 7 12.68 7 12 7 C11.9175 8.155 11.835 9.31 11.75 10.5 C11.1281526 15.09021568 10.22894987 19.51933092 7 23 C3.97383903 23.965241 1.16112933 24.1080728 -2 24 C-3.10852275 19.56590901 -3.21993456 15.54531422 -3 11 C-2.34 10.01 -1.68 9.02 -1 8 C-0.54860541 5.9507906 -0.54860541 5.9507906 -0.375 3.8125 C-0.25125 2.554375 -0.1275 1.29625 0 0 Z " fill="#D1ECF3" transform="translate(83,126)"/>
<path d="M0 0 C3.70384688 1.42455649 5.90283071 3.80439725 8.53515625 6.66015625 C11.91181388 9.74867243 16.21663169 9.14947639 20.5 9.125 C21.51513672 9.13080078 21.51513672 9.13080078 22.55078125 9.13671875 C25.64073767 9.13062416 28.04679311 8.9844023 31 8 C31 7.34 31 6.68 31 6 C35.38461538 3 35.38461538 3 38 3 C38.33 2.01 38.66 1.02 39 0 C39.8125 1.6875 39.8125 1.6875 40 4 C37.28180587 7.26183296 34.73877655 9.13061173 31 11 C30.67 11.99 30.34 12.98 30 14 C25.185402 16.407299 17.75261149 15.65538369 12.62109375 14.43359375 C10.75 13.6875 10.75 13.6875 8 12 C7.67 11.01 7.34 10.02 7 9 C6.071875 8.7834375 6.071875 8.7834375 5.125 8.5625 C3 8 3 8 1.25 6.1875 C0 4 0 4 0 0 Z " fill="#E2945A" transform="translate(55,90)"/>
<path d="M0 0 C0.99 0.33 1.98 0.66 3 1 C2.67 2.65 2.34 4.3 2 6 C1.34 6 0.68 6 0 6 C-0.33 7.65 -0.66 9.3 -1 11 C-2.32 11 -3.64 11 -5 11 C-5.66 13.31 -6.32 15.62 -7 18 C-6.01 17.67 -5.02 17.34 -4 17 C-3.34 17.66 -2.68 18.32 -2 19 C-1.01 18.34 -0.02 17.68 1 17 C1.125 23.75 1.125 23.75 0 26 C-0.52207031 25.80664062 -1.04414062 25.61328125 -1.58203125 25.4140625 C-7.63926991 23.2712215 -13.66108225 22.00711777 -20 21 C-17.60713072 17.56675278 -15.02963389 15.19671576 -11.6875 12.75 C-6.86566922 9.13362691 -3.4566425 4.90154129 0 0 Z " fill="#E7F0F4" transform="translate(96,104)"/>
<path d="M0 0 C2.64 0 5.28 0 8 0 C8.25 7.625 8.25 7.625 6 11 C5.75753217 14.20379124 5.75753217 14.20379124 5.875 17.6875 C5.89304687 18.86699219 5.91109375 20.04648438 5.9296875 21.26171875 C5.95289062 22.16535156 5.97609375 23.06898438 6 24 C4.02 24 2.04 24 0 24 C0 16.08 0 8.16 0 0 Z " fill="#03A499" transform="translate(75,126)"/>
<path d="M0 0 C0.33 0 0.66 0 1 0 C1.66 6.93 2.32 13.86 3 21 C1.02 21 -0.96 21 -3 21 C-4.125 13.375 -4.125 13.375 -3 10 C-2.34 10 -1.68 10 -1 10 C-0.67 6.7 -0.34 3.4 0 0 Z " fill="#DFD9CF" transform="translate(45,33)"/>
<path d="M0 0 C1.48831242 0.00667405 2.97660807 0.01863442 4.46484375 0.03515625 C5.22345703 0.03966797 5.98207031 0.04417969 6.76367188 0.04882812 C8.64326246 0.06064945 10.52281274 0.07858547 12.40234375 0.09765625 C12.40234375 0.42765625 12.40234375 0.75765625 12.40234375 1.09765625 C9.76234375 1.09765625 7.12234375 1.09765625 4.40234375 1.09765625 C4.07234375 2.08765625 3.74234375 3.07765625 3.40234375 4.09765625 C2.41234375 4.09765625 1.42234375 4.09765625 0.40234375 4.09765625 C0.40234375 3.43765625 0.40234375 2.77765625 0.40234375 2.09765625 C-0.58765625 2.09765625 -1.57765625 2.09765625 -2.59765625 2.09765625 C-2.26765625 3.74765625 -1.93765625 5.39765625 -1.59765625 7.09765625 C-0.93765625 6.76765625 -0.27765625 6.43765625 0.40234375 6.09765625 C0.23863281 6.6390625 0.07492188 7.18046875 -0.09375 7.73828125 C-0.68356212 10.49988218 -0.69374933 13.02583764 -0.66015625 15.84765625 C-0.65113281 16.8325 -0.64210938 17.81734375 -0.6328125 18.83203125 C-0.62121094 19.5796875 -0.60960938 20.32734375 -0.59765625 21.09765625 C-0.92765625 21.09765625 -1.25765625 21.09765625 -1.59765625 21.09765625 C-1.64664063 20.41058594 -1.695625 19.72351563 -1.74609375 19.015625 C-1.82085937 18.11457031 -1.895625 17.21351563 -1.97265625 16.28515625 C-2.04226562 15.39183594 -2.111875 14.49851563 -2.18359375 13.578125 C-2.46410661 10.85367126 -2.46410661 10.85367126 -4.59765625 8.09765625 C-4.78515625 4.47265625 -4.78515625 4.47265625 -4.59765625 1.09765625 C-3.59765625 0.09765625 -3.59765625 0.09765625 0 0 Z " fill="#34C0B7" transform="translate(70.59765625,124.90234375)"/>
<path d="M0 0 C0.66 0.66 1.32 1.32 2 2 C1.67 2.33 1.34 2.66 1 3 C1.66 3.33 2.32 3.66 3 4 C3.625 7.0625 3.625 7.0625 4 10 C2.68 10 1.36 10 0 10 C-2.25 7.5 -2.25 7.5 -4 5 C-2.25 1.125 -2.25 1.125 0 0 Z " fill="#E7AE7F" transform="translate(73,114)"/>
<path d="M0 0 C4.74489796 4.13657771 4.74489796 4.13657771 5.8125 7.75 C6.04845127 11.83982203 6.08190101 15.90494943 6 20 C4.35 20 2.7 20 1 20 C1.99 19.67 2.98 19.34 4 19 C3.71632132 16.76980273 3.42272612 14.54086546 3.125 12.3125 C2.96257812 11.07113281 2.80015625 9.82976562 2.6328125 8.55078125 C2.07521631 5.42204705 1.30991877 2.87851898 0 0 Z " fill="#DFEBEF" transform="translate(111,108)"/>
<path d="M0 0 C0.66 0.66 1.32 1.32 2 2 C1.625 4.125 1.625 4.125 1 6 C1.66 6.33 2.32 6.66 3 7 C3.125 12.75 3.125 12.75 2 15 C1.34 15 0.68 15 0 15 C-0.07347656 13.93458984 -0.07347656 13.93458984 -0.1484375 12.84765625 C-0.26058594 11.46900391 -0.26058594 11.46900391 -0.375 10.0625 C-0.44460937 9.14597656 -0.51421875 8.22945312 -0.5859375 7.28515625 C-0.72257812 6.53105469 -0.85921875 5.77695313 -1 5 C-1.66 4.67 -2.32 4.34 -3 4 C-2.34 4 -1.68 4 -1 4 C-0.67 2.68 -0.34 1.36 0 0 Z " fill="#E8B384" transform="translate(50,68)"/>
<path d="M0 0 C0.99 0.33 1.98 0.66 3 1 C3.12375 1.969375 3.2475 2.93875 3.375 3.9375 C3.58125 4.948125 3.7875 5.95875 4 7 C4.66 7.33 5.32 7.66 6 8 C6 10.31 6 12.62 6 15 C5.01 15.33 4.02 15.66 3 16 C1.79431947 11.32798795 1.90617574 6.78503708 2 2 C1.01 1.67 0.02 1.34 -1 1 C-0.67 0.67 -0.34 0.34 0 0 Z " fill="#E2D9CF" transform="translate(104,52)"/>
<path d="M0 0 C4.84659077 0.59104765 8.60748167 1.97944157 13 4 C13 4.66 13 5.32 13 6 C9.37 5.01 5.74 4.02 2 3 C1.34 4.32 0.68 5.64 0 7 C0 4.69 0 2.38 0 0 Z " fill="#ACDADE" transform="translate(83,126)"/>
<path d="M0 0 C2.31 0 4.62 0 7 0 C7.33 0.66 7.66 1.32 8 2 C6.35 2 4.7 2 3 2 C3.66 3.32 4.32 4.64 5 6 C3.0625 5.25 3.0625 5.25 1 4 C0.25 1.875 0.25 1.875 0 0 Z " fill="#E4EEF1" transform="translate(103,126)"/>
<path d="M0 0 C-0.33 0.99 -0.66 1.98 -1 3 C-3.06640625 3.73046875 -3.06640625 3.73046875 -5.5625 4.1875 C-6.38878906 4.34605469 -7.21507812 4.50460938 -8.06640625 4.66796875 C-9.02353516 4.83232422 -9.02353516 4.83232422 -10 5 C-9.67 4.01 -9.34 3.02 -9 2 C-5.82757352 0.68964993 -3.44118336 0 0 0 Z " fill="#B8DBE1" transform="translate(65,126)"/>
<path d="M0 0 C2 3 2 3 2 5 C0.02 5.33 -1.96 5.66 -4 6 C-3.67 5.01 -3.34 4.02 -3 3 C-3.33 2.34 -3.66 1.68 -4 1 C-3.01 1.33 -2.02 1.66 -1 2 C-0.67 1.34 -0.34 0.68 0 0 Z " fill="#DC9E69" transform="translate(100,52)"/>
<path d="M0 0 C0.99 0.33 1.98 0.66 3 1 C3 3.31 3 5.62 3 8 C2.34 7.67 1.68 7.34 1 7 C1 6.34 1 5.68 1 5 C0.01 4.67 -0.98 4.34 -2 4 C-1.01 3.67 -0.02 3.34 1 3 C0.67 2.01 0.34 1.02 0 0 Z " fill="#DED6CC" transform="translate(98,14)"/>
<path d="M0 0 C0.66 0.33 1.32 0.66 2 1 C1.01 2.98 0.02 4.96 -1 7 C-1.66 7 -2.32 7 -3 7 C-2.814375 6.38125 -2.62875 5.7625 -2.4375 5.125 C-1.76313824 2.95839822 -1.76313824 2.95839822 -3 1 C-2.01 0.67 -1.02 0.34 0 0 Z " fill="#F0F3F4" transform="translate(39,106)"/>
</svg>
