<svg width="27" height="25" viewBox="0 0 27 25" fill="none" xmlns="http://www.w3.org/2000/svg">
<path d="M13.5366 0.891602C11.0365 0.891788 8.59256 1.57702 6.51386 2.86065C4.43517 4.14428 2.81507 5.96865 1.85845 8.10308C0.901826 10.2375 0.651633 12.5861 1.13951 14.8519C1.62739 17.1177 2.83142 19.199 4.59936 20.8325C6.3673 22.466 8.61975 23.5784 11.0719 24.0291C13.524 24.4797 16.0657 24.2483 18.3755 23.3642C20.6853 22.4801 22.6595 20.9829 24.0485 19.062C25.4375 17.1411 26.1788 14.8827 26.1788 12.5725C26.1791 11.0384 25.8523 9.51928 25.217 8.10192C24.5818 6.68455 23.6506 5.39671 22.4766 4.31198C21.3026 3.22724 19.9088 2.36686 18.3748 1.77998C16.8409 1.19311 15.1969 0.891231 13.5366 0.891602ZM21.0967 19.5592C20.1109 20.5058 18.9308 21.2612 17.6253 21.7813C16.3199 22.3014 14.9153 22.5758 13.4937 22.5883C12.0722 22.6009 10.6621 22.3515 9.34614 21.8546C8.03014 21.3576 6.83457 20.6232 5.82936 19.6943C4.82414 18.7654 4.02946 17.6606 3.49179 16.4446C2.95411 15.2285 2.68424 13.9256 2.69795 12.612C2.71166 11.2984 3.00867 10.0005 3.57163 8.79426C4.13458 7.58801 4.95217 6.49757 5.97659 5.58674C6.96306 4.64296 8.14307 3.89016 9.44777 3.37228C10.7525 2.8544 12.1557 2.5818 13.5756 2.5704C14.9956 2.559 16.4037 2.80902 17.718 3.30587C19.0322 3.80272 20.2262 4.53646 21.2303 5.46426C22.2343 6.39207 23.0284 7.49536 23.5661 8.70976C24.1038 9.92417 24.3744 11.2254 24.362 12.5374C24.3497 13.8495 24.0547 15.1461 23.4942 16.3517C22.9338 17.5573 22.1191 18.6477 21.0977 19.5592H21.0967Z" fill="#D3D4DB"/>
</svg>
