<svg width="26" height="25" viewBox="0 0 26 25" fill="none" xmlns="http://www.w3.org/2000/svg">
<path d="M13.23 0.891602C15.7302 0.891602 18.1743 1.57668 20.2531 2.86019C22.3319 4.14371 23.9522 5.96802 24.909 8.10242C25.8657 10.2368 26.1161 12.5855 25.6283 14.8514C25.1406 17.1172 23.9366 19.1986 22.1687 20.8322C20.4008 22.4658 18.1484 23.5783 15.6962 24.029C13.2441 24.4797 10.7023 24.2484 8.39247 23.3643C6.0826 22.4802 4.10832 20.983 2.71929 19.0621C1.33026 17.1412 0.588867 14.8828 0.588867 12.5725C0.5886 11.0385 0.915391 9.51944 1.55057 8.10213C2.18576 6.68483 3.11689 5.39703 4.29078 4.31231C5.46468 3.22759 6.85834 2.36719 8.39216 1.78025C9.92597 1.19332 11.5699 0.891354 13.23 0.891602ZM5.66998 19.5592C6.65646 20.503 7.83647 21.2558 9.14117 21.7737C10.4459 22.2916 11.8491 22.5642 13.269 22.5756C14.689 22.587 16.0971 22.337 17.4114 21.8401C18.7256 21.3433 19.9196 20.6095 20.9237 19.6817C21.9277 18.7539 22.7218 17.6506 23.2595 16.4362C23.7972 15.2218 24.0678 13.9206 24.0554 12.6086C24.0431 11.2965 23.7481 9.99983 23.1876 8.79424C22.6272 7.58866 21.8125 6.49828 20.7911 5.58674C19.8046 4.64296 18.6246 3.89016 17.3199 3.37228C16.0152 2.8544 14.612 2.5818 13.1921 2.5704C11.7721 2.559 10.364 2.80902 9.04974 3.30587C7.7355 3.80272 6.54151 4.53646 5.53743 5.46426C4.53336 6.39207 3.7393 7.49536 3.20161 8.70976C2.66391 9.92417 2.39334 11.2254 2.40567 12.5374C2.41801 13.8495 2.71302 15.1461 3.27347 16.3517C3.83393 17.5573 4.64861 18.6477 5.66998 19.5592Z" fill="black"/>
</svg>
