<svg width="26" height="24" viewBox="0 0 26 24" fill="none" xmlns="http://www.w3.org/2000/svg">
<path d="M13.0006 6.42789C11.7698 6.42789 10.5665 6.76511 9.54307 7.39696C8.51961 8.02881 7.72188 8.9269 7.25075 9.97766C6.77963 11.0284 6.65625 12.1847 6.89624 13.3002C7.13622 14.4158 7.72878 15.4405 8.599 16.2449C9.46921 17.0492 10.578 17.5971 11.7852 17.8192C12.9923 18.0414 14.2437 17.9277 15.381 17.4928C16.5183 17.0578 17.4904 16.3209 18.1746 15.3754C18.8587 14.4299 19.2241 13.3182 19.2245 12.1808C19.2202 10.6566 18.5631 9.19589 17.3969 8.11792C16.2307 7.03995 14.6502 6.43236 13.0006 6.42789ZM13.0006 7.87245C13.9228 7.87245 14.8242 8.12515 15.591 8.59855C16.3577 9.07196 16.9553 9.74483 17.3082 10.5321C17.6611 11.3193 17.7535 12.1856 17.5736 13.0213C17.3937 13.8571 16.9496 14.6248 16.2975 15.2273C15.6455 15.8298 14.8147 16.2401 13.9102 16.4064C13.0058 16.5726 12.0683 16.4873 11.2164 16.1612C10.3644 15.8351 9.6362 15.2829 9.12388 14.5744C8.61155 13.8659 8.3381 13.0329 8.3381 12.1808C8.33689 11.6147 8.45667 11.054 8.69056 10.5308C8.92444 10.0075 9.26783 9.53215 9.70103 9.13186C10.1342 8.73157 10.6487 8.41426 11.2149 8.19814C11.7812 7.98202 12.388 7.87134 13.0006 7.87245ZM12.9059 1.3563C12.7139 1.37723 12.537 1.46315 12.4095 1.5975C12.2819 1.73184 12.2128 1.9051 12.2154 2.08378V4.97202C12.2154 5.1637 12.2978 5.34752 12.4445 5.48306C12.5912 5.6186 12.7901 5.69476 12.9976 5.69476C13.205 5.69476 13.404 5.6186 13.5507 5.48306C13.6973 5.34752 13.7798 5.1637 13.7798 4.97202V2.08378C13.7812 1.98091 13.759 1.87891 13.7144 1.78464C13.6698 1.69036 13.6039 1.60596 13.5212 1.5371C13.4385 1.46823 13.3408 1.41649 13.2347 1.38531C13.1286 1.35413 13.0165 1.34424 12.9059 1.3563ZM12.9884 18.6612C12.7817 18.6635 12.5843 18.7412 12.4394 18.8775C12.2946 19.0139 12.214 19.1977 12.2154 19.3887V22.2741C12.2154 22.4658 12.2978 22.6496 12.4445 22.7852C12.5912 22.9207 12.7901 22.9969 12.9976 22.9969C13.205 22.9969 13.404 22.9207 13.5507 22.7852C13.6973 22.6496 13.7798 22.4658 13.7798 22.2741V19.3878C13.7804 19.2917 13.7604 19.1965 13.7208 19.1077C13.6813 19.0189 13.6229 18.9383 13.5492 18.8706C13.4756 18.8029 13.388 18.7494 13.2917 18.7133C13.1954 18.6772 13.0923 18.6592 12.9884 18.6603V18.6612ZM20.9589 11.459C20.7516 11.459 20.5528 11.5351 20.4062 11.6705C20.2596 11.806 20.1772 11.9897 20.1772 12.1813C20.1772 12.3729 20.2596 12.5566 20.4062 12.692C20.5528 12.8275 20.7516 12.9036 20.9589 12.9036H24.0876C24.2949 12.9036 24.4938 12.8275 24.6404 12.692C24.7869 12.5566 24.8693 12.3729 24.8693 12.1813C24.8693 11.9897 24.7869 11.806 24.6404 11.6705C24.4938 11.5351 24.2949 11.459 24.0876 11.459H20.9589ZM2.21917 11.459C2.01186 11.459 1.81304 11.5351 1.66645 11.6705C1.51985 11.806 1.4375 11.9897 1.4375 12.1813C1.4375 12.3729 1.51985 12.5566 1.66645 12.692C1.81304 12.8275 2.01186 12.9036 2.21917 12.9036H5.34789C5.5552 12.9036 5.75402 12.8275 5.90062 12.692C6.04721 12.5566 6.12956 12.3729 6.12956 12.1813C6.12956 11.9897 6.04721 11.806 5.90062 11.6705C5.75402 11.5351 5.5552 11.459 5.34789 11.459H2.21917ZM18.429 16.5522C18.2812 16.5661 18.1408 16.6187 18.0242 16.7038C17.9076 16.7888 17.8196 16.9028 17.7706 17.0324C17.7217 17.162 17.7137 17.3019 17.7477 17.4355C17.7817 17.5692 17.8563 17.6911 17.9626 17.7869L20.1696 19.8254C20.2398 19.9004 20.3259 19.9612 20.4226 20.0041C20.5193 20.0471 20.6245 20.0712 20.7317 20.0749C20.8389 20.0787 20.9458 20.062 21.0457 20.026C21.1457 19.9899 21.2365 19.9353 21.3126 19.8654C21.3887 19.7955 21.4485 19.712 21.4881 19.6198C21.5278 19.5277 21.5465 19.4291 21.5431 19.33C21.5398 19.2309 21.5144 19.1335 21.4685 19.0439C21.4227 18.9542 21.3574 18.8743 21.2767 18.809L19.0697 16.7706C18.9877 16.6918 18.8875 16.6312 18.7765 16.5934C18.6655 16.5556 18.5467 16.5415 18.429 16.5522ZM5.17883 4.31795C5.03039 4.3314 4.88922 4.38384 4.77201 4.46907C4.6548 4.5543 4.56644 4.66874 4.51739 4.79889C4.46833 4.92904 4.46062 5.06946 4.49517 5.20353C4.52973 5.3376 4.60509 5.45974 4.71237 5.55549L6.91938 7.5939C6.98954 7.66889 7.07565 7.72974 7.17235 7.77268C7.26905 7.81562 7.37427 7.83972 7.48148 7.84347C7.58868 7.84723 7.69558 7.83058 7.79552 7.79454C7.89546 7.75849 7.98631 7.70383 8.06241 7.63396C8.13852 7.56409 8.19825 7.48049 8.23791 7.38838C8.27756 7.29626 8.29628 7.19759 8.29291 7.09851C8.28954 6.99942 8.26414 6.90205 8.2183 6.81243C8.17246 6.7228 8.10716 6.64284 8.02645 6.57752L5.81944 4.53909C5.73747 4.46031 5.63724 4.39973 5.52628 4.36192C5.41532 4.3241 5.29652 4.31003 5.17883 4.32076V4.31795ZM20.7063 4.31795C20.5031 4.3244 20.3106 4.40371 20.1696 4.53909L17.9626 6.57752C17.8819 6.64284 17.8166 6.7228 17.7707 6.81243C17.7249 6.90205 17.6995 6.99942 17.6961 7.09851C17.6928 7.19759 17.7115 7.29626 17.7511 7.38838C17.7908 7.48049 17.8505 7.56409 17.9266 7.63396C18.0027 7.70383 18.0936 7.75849 18.1935 7.79454C18.2935 7.83058 18.4004 7.84723 18.5076 7.84347C18.6148 7.83972 18.72 7.81562 18.8167 7.77268C18.9134 7.72974 18.9995 7.66889 19.0697 7.5939L21.2767 5.55549C21.388 5.45375 21.4636 5.32345 21.4938 5.1815C21.524 5.03955 21.5073 4.89249 21.4459 4.7594C21.3846 4.62632 21.2813 4.51334 21.1496 4.43512C21.0179 4.35691 20.8638 4.31707 20.7073 4.32076L20.7063 4.31795ZM7.45611 16.5522C7.25333 16.5579 7.06088 16.6362 6.91938 16.7706L4.71237 18.809C4.63166 18.8743 4.56636 18.9542 4.52052 19.0439C4.47468 19.1335 4.44929 19.2309 4.44591 19.33C4.44254 19.4291 4.46126 19.5277 4.50092 19.6198C4.54057 19.712 4.60031 19.7955 4.67641 19.8654C4.75252 19.9353 4.84336 19.9899 4.9433 20.026C5.04324 20.062 5.15014 20.0787 5.25735 20.0749C5.36455 20.0712 5.46978 20.0471 5.56648 20.0041C5.66317 19.9612 5.74928 19.9004 5.81944 19.8254L8.02645 17.7869C8.13774 17.6852 8.21338 17.5549 8.24356 17.413C8.27374 17.271 8.25707 17.124 8.19571 16.9909C8.13434 16.8578 8.03112 16.7448 7.89942 16.6666C7.76772 16.5884 7.61261 16.5485 7.45611 16.5522Z" fill="black" stroke="black"/>
</svg>
