<svg width="34" height="21" viewBox="0 0 34 21" fill="none" xmlns="http://www.w3.org/2000/svg">
<path d="M31.9677 10.6389H27.0658C27.048 9.07243 26.4066 7.5669 25.2641 6.40956L26.5708 5.44305C26.7221 5.35033 26.8462 5.22447 26.932 5.07669C27.0178 4.9289 27.0628 4.76378 27.0628 4.59606C27.0628 4.42834 27.0178 4.26322 26.932 4.11543C26.8462 3.96764 26.7221 3.84178 26.5708 3.74907C26.2438 3.51403 25.8414 3.38641 25.4271 3.38641C25.0128 3.38641 24.6104 3.51403 24.2834 3.74907L22.9807 4.71746C21.7249 4.05679 20.3334 3.64615 18.8957 3.51191V2.17932C18.8957 1.45467 18.2418 0.970947 17.2661 0.970947C16.2905 0.970947 15.6366 1.45467 15.6366 2.17932V3.51191C14.2178 3.7262 12.8412 4.1334 11.5515 4.72028L10.2367 3.75095C9.90971 3.51591 9.50725 3.3883 9.09297 3.3883C8.67869 3.3883 8.27623 3.51591 7.94923 3.75095C7.79797 3.84367 7.67389 3.96953 7.58806 4.11731C7.50223 4.2651 7.45731 4.43022 7.45731 4.59794C7.45731 4.76567 7.50223 4.93078 7.58806 5.07857C7.67389 5.22636 7.79797 5.35222 7.94923 5.44493L9.25592 6.41144C8.11467 7.56958 7.47478 9.07542 7.45833 10.6417H2.55239C1.57161 10.6417 0.922852 11.1254 0.922852 11.85C0.922852 12.5747 1.57671 13.0584 2.55239 13.0584H31.9677C32.9484 13.0584 33.5972 12.5747 33.5972 11.85C33.5972 11.1254 32.9474 10.6389 31.9677 10.6389ZM10.7266 10.6389C10.7266 7.98025 13.6679 5.80443 17.2621 5.80443C20.8562 5.80443 23.7975 7.97931 23.7975 10.6389H10.7266ZM22.1639 14.264H12.3602C11.3794 14.264 10.7307 14.7477 10.7307 15.4723C10.7307 16.197 11.3845 16.6807 12.3602 16.6807H22.1639C23.1447 16.6807 23.7935 16.197 23.7935 15.4723C23.7935 14.7477 23.1447 14.264 22.1639 14.264ZM18.8957 20.3068H15.6285C14.6477 20.3068 13.9989 19.823 13.9989 19.0984C13.9989 18.3737 14.6528 17.89 15.6285 17.89H18.8967C19.8775 17.89 20.5262 18.3737 20.5262 19.0984C20.5262 19.823 19.8765 20.3068 18.8957 20.3068Z" fill="black"/>
</svg>
